<mxfile host="app.diagrams.net" modified="2023-08-08T03:42:38.663Z" agent="Mozilla/5.0 (Macintosh; Intel Mac OS X 10_15_7) AppleWebKit/537.36 (KHTML, like Gecko) Chrome/115.0.0.0 Safari/537.36" etag="FWC2oOX1Z6WbAd8-LSnC" version="21.6.6" type="github">
  <diagram name="Page-1" id="2YBvvXClWsGukQMizWep">
    <mxGraphModel dx="2092" dy="706" grid="1" gridSize="10" guides="1" tooltips="1" connect="1" arrows="1" fold="1" page="1" pageScale="1" pageWidth="850" pageHeight="1100" math="0" shadow="0">
      <root>
        <mxCell id="0" />
        <mxCell id="1" parent="0" />
        <mxCell id="aM9ryv3xv72pqoxQDRHE-1" value="&lt;div style=&quot;background-color: rgb(255, 255, 255); color: rgb(8, 8, 8); font-family: Menlo-Regular, monospace; font-size: 9.8pt;&quot;&gt;订单模块投递事件&lt;/div&gt;" style="shape=umlLifeline;perimeter=lifelinePerimeter;whiteSpace=wrap;html=1;container=0;dropTarget=0;collapsible=0;recursiveResize=0;outlineConnect=0;portConstraint=eastwest;newEdgeStyle={&quot;edgeStyle&quot;:&quot;elbowEdgeStyle&quot;,&quot;elbow&quot;:&quot;vertical&quot;,&quot;curved&quot;:0,&quot;rounded&quot;:0};" parent="1" vertex="1">
          <mxGeometry x="40" y="40" width="100" height="400" as="geometry" />
        </mxCell>
        <mxCell id="aM9ryv3xv72pqoxQDRHE-2" value="" style="html=1;points=[];perimeter=orthogonalPerimeter;outlineConnect=0;targetShapes=umlLifeline;portConstraint=eastwest;newEdgeStyle={&quot;edgeStyle&quot;:&quot;elbowEdgeStyle&quot;,&quot;elbow&quot;:&quot;vertical&quot;,&quot;curved&quot;:0,&quot;rounded&quot;:0};" parent="aM9ryv3xv72pqoxQDRHE-1" vertex="1">
          <mxGeometry x="45" y="70" width="10" height="330" as="geometry" />
        </mxCell>
        <mxCell id="aM9ryv3xv72pqoxQDRHE-3" value="下单成功通知" style="html=1;verticalAlign=bottom;startArrow=oval;endArrow=block;startSize=8;edgeStyle=elbowEdgeStyle;elbow=vertical;curved=0;rounded=0;" parent="aM9ryv3xv72pqoxQDRHE-1" target="aM9ryv3xv72pqoxQDRHE-2" edge="1">
          <mxGeometry relative="1" as="geometry">
            <mxPoint x="-40" y="70" as="sourcePoint" />
          </mxGeometry>
        </mxCell>
        <mxCell id="aM9ryv3xv72pqoxQDRHE-5" value="subscribe-mq&lt;br&gt;订单模块消费组：&lt;br&gt;TOPIC-ORDER" style="shape=umlLifeline;perimeter=lifelinePerimeter;whiteSpace=wrap;html=1;container=0;dropTarget=0;collapsible=0;recursiveResize=0;outlineConnect=0;portConstraint=eastwest;newEdgeStyle={&quot;edgeStyle&quot;:&quot;elbowEdgeStyle&quot;,&quot;elbow&quot;:&quot;vertical&quot;,&quot;curved&quot;:0,&quot;rounded&quot;:0};" parent="1" vertex="1">
          <mxGeometry x="375" y="40" width="100" height="400" as="geometry" />
        </mxCell>
        <mxCell id="aM9ryv3xv72pqoxQDRHE-6" value="" style="html=1;points=[];perimeter=orthogonalPerimeter;outlineConnect=0;targetShapes=umlLifeline;portConstraint=eastwest;newEdgeStyle={&quot;edgeStyle&quot;:&quot;elbowEdgeStyle&quot;,&quot;elbow&quot;:&quot;vertical&quot;,&quot;curved&quot;:0,&quot;rounded&quot;:0};" parent="aM9ryv3xv72pqoxQDRHE-5" vertex="1">
          <mxGeometry x="45" y="80" width="10" height="320" as="geometry" />
        </mxCell>
        <mxCell id="gyNTy8IUgfwNoTlgnFIe-4" value="" style="html=1;points=[];perimeter=orthogonalPerimeter;outlineConnect=0;targetShapes=umlLifeline;portConstraint=eastwest;newEdgeStyle={&quot;edgeStyle&quot;:&quot;elbowEdgeStyle&quot;,&quot;elbow&quot;:&quot;vertical&quot;,&quot;curved&quot;:0,&quot;rounded&quot;:0};" vertex="1" parent="aM9ryv3xv72pqoxQDRHE-5">
          <mxGeometry x="55" y="150" width="10" height="40" as="geometry" />
        </mxCell>
        <mxCell id="gyNTy8IUgfwNoTlgnFIe-5" value="1. 校验过滤（哪些活动类型不发）&lt;br style=&quot;font-size: 13px;&quot;&gt;2. 指定用于发消息的appId&lt;br style=&quot;font-size: 13px;&quot;&gt;3. 指定模板，根据格式，填充data_map: &lt;br style=&quot;font-size: 13px;&quot;&gt;thing1={orderNo},name2={nickname}，&lt;br style=&quot;font-size: 13px;&quot;&gt;（处理wx模板规定的长度限制，超出20个字显示为...）&lt;br style=&quot;font-size: 13px;&quot;&gt;4. 通知跳转页面page+param&lt;br style=&quot;font-size: 13px;&quot;&gt;5. 指定toUid和fromUid（这个不重要）&lt;br style=&quot;font-size: 13px;&quot;&gt;6. msgId （防止重复发送的兜底）" style="html=1;align=left;spacingLeft=2;endArrow=block;rounded=0;edgeStyle=orthogonalEdgeStyle;curved=0;rounded=0;fontSize=13;" edge="1" target="gyNTy8IUgfwNoTlgnFIe-4" parent="aM9ryv3xv72pqoxQDRHE-5">
          <mxGeometry x="-0.2941" y="32" relative="1" as="geometry">
            <mxPoint x="60" y="130" as="sourcePoint" />
            <Array as="points">
              <mxPoint x="90" y="160" />
            </Array>
            <mxPoint x="-7" y="-20" as="offset" />
          </mxGeometry>
        </mxCell>
        <mxCell id="gyNTy8IUgfwNoTlgnFIe-2" value="notice" style="shape=umlLifeline;perimeter=lifelinePerimeter;whiteSpace=wrap;html=1;container=0;dropTarget=0;collapsible=0;recursiveResize=0;outlineConnect=0;portConstraint=eastwest;newEdgeStyle={&quot;edgeStyle&quot;:&quot;elbowEdgeStyle&quot;,&quot;elbow&quot;:&quot;vertical&quot;,&quot;curved&quot;:0,&quot;rounded&quot;:0};" vertex="1" parent="1">
          <mxGeometry x="790" y="50" width="100" height="410" as="geometry" />
        </mxCell>
        <mxCell id="gyNTy8IUgfwNoTlgnFIe-3" value="" style="html=1;points=[];perimeter=orthogonalPerimeter;outlineConnect=0;targetShapes=umlLifeline;portConstraint=eastwest;newEdgeStyle={&quot;edgeStyle&quot;:&quot;elbowEdgeStyle&quot;,&quot;elbow&quot;:&quot;vertical&quot;,&quot;curved&quot;:0,&quot;rounded&quot;:0};" vertex="1" parent="gyNTy8IUgfwNoTlgnFIe-2">
          <mxGeometry x="45" y="80" width="10" height="310" as="geometry" />
        </mxCell>
        <mxCell id="gyNTy8IUgfwNoTlgnFIe-6" value="" style="html=1;points=[];perimeter=orthogonalPerimeter;outlineConnect=0;targetShapes=umlLifeline;portConstraint=eastwest;newEdgeStyle={&quot;edgeStyle&quot;:&quot;elbowEdgeStyle&quot;,&quot;elbow&quot;:&quot;vertical&quot;,&quot;curved&quot;:0,&quot;rounded&quot;:0};" vertex="1" parent="gyNTy8IUgfwNoTlgnFIe-2">
          <mxGeometry x="35" y="280" width="10" height="80" as="geometry" />
        </mxCell>
        <mxCell id="gyNTy8IUgfwNoTlgnFIe-7" value="发消息spi&lt;br&gt;sr_code, msg_data" style="html=1;verticalAlign=bottom;endArrow=block;edgeStyle=elbowEdgeStyle;elbow=vertical;curved=0;rounded=0;" edge="1" target="gyNTy8IUgfwNoTlgnFIe-6" parent="1">
          <mxGeometry y="10" relative="1" as="geometry">
            <mxPoint x="440" y="360" as="sourcePoint" />
            <mxPoint as="offset" />
          </mxGeometry>
        </mxCell>
        <mxCell id="gyNTy8IUgfwNoTlgnFIe-8" value="return" style="html=1;verticalAlign=bottom;endArrow=open;dashed=1;endSize=8;edgeStyle=elbowEdgeStyle;elbow=vertical;curved=0;rounded=0;" edge="1" source="gyNTy8IUgfwNoTlgnFIe-6" parent="1">
          <mxGeometry relative="1" as="geometry">
            <mxPoint x="430" y="390" as="targetPoint" />
            <mxPoint x="435" y="390" as="sourcePoint" />
          </mxGeometry>
        </mxCell>
        <mxCell id="gyNTy8IUgfwNoTlgnFIe-9" value="broker" style="shape=umlLifeline;perimeter=lifelinePerimeter;whiteSpace=wrap;html=1;container=0;dropTarget=0;collapsible=0;recursiveResize=0;outlineConnect=0;portConstraint=eastwest;newEdgeStyle={&quot;edgeStyle&quot;:&quot;elbowEdgeStyle&quot;,&quot;elbow&quot;:&quot;vertical&quot;,&quot;curved&quot;:0,&quot;rounded&quot;:0};" vertex="1" parent="1">
          <mxGeometry x="210" y="40" width="100" height="400" as="geometry" />
        </mxCell>
        <mxCell id="gyNTy8IUgfwNoTlgnFIe-10" value="" style="html=1;points=[];perimeter=orthogonalPerimeter;outlineConnect=0;targetShapes=umlLifeline;portConstraint=eastwest;newEdgeStyle={&quot;edgeStyle&quot;:&quot;elbowEdgeStyle&quot;,&quot;elbow&quot;:&quot;vertical&quot;,&quot;curved&quot;:0,&quot;rounded&quot;:0};" vertex="1" parent="gyNTy8IUgfwNoTlgnFIe-9">
          <mxGeometry x="45" y="80" width="10" height="320" as="geometry" />
        </mxCell>
        <mxCell id="gyNTy8IUgfwNoTlgnFIe-13" value="" style="html=1;points=[];perimeter=orthogonalPerimeter;outlineConnect=0;targetShapes=umlLifeline;portConstraint=eastwest;newEdgeStyle={&quot;edgeStyle&quot;:&quot;elbowEdgeStyle&quot;,&quot;elbow&quot;:&quot;vertical&quot;,&quot;curved&quot;:0,&quot;rounded&quot;:0};" vertex="1" parent="gyNTy8IUgfwNoTlgnFIe-9">
          <mxGeometry x="35" y="110" width="10" height="80" as="geometry" />
        </mxCell>
        <mxCell id="gyNTy8IUgfwNoTlgnFIe-14" value="topic=xxx, tag=xxx, &lt;br&gt;param={orderNo=,uid=}" style="html=1;verticalAlign=bottom;endArrow=block;edgeStyle=elbowEdgeStyle;elbow=vertical;curved=0;rounded=0;" edge="1" target="gyNTy8IUgfwNoTlgnFIe-13" parent="1" source="aM9ryv3xv72pqoxQDRHE-1">
          <mxGeometry x="0.0313" y="10" relative="1" as="geometry">
            <mxPoint x="215" y="150" as="sourcePoint" />
            <Array as="points">
              <mxPoint x="223" y="170" />
            </Array>
            <mxPoint x="1" as="offset" />
          </mxGeometry>
        </mxCell>
        <mxCell id="gyNTy8IUgfwNoTlgnFIe-15" value="return" style="html=1;verticalAlign=bottom;endArrow=open;dashed=1;endSize=8;edgeStyle=elbowEdgeStyle;elbow=vertical;curved=0;rounded=0;" edge="1" source="gyNTy8IUgfwNoTlgnFIe-13" parent="1" target="aM9ryv3xv72pqoxQDRHE-1">
          <mxGeometry x="-0.0313" y="40" relative="1" as="geometry">
            <mxPoint x="180" y="290" as="targetPoint" />
            <Array as="points">
              <mxPoint x="220" y="220" />
            </Array>
            <mxPoint as="offset" />
          </mxGeometry>
        </mxCell>
        <mxCell id="gyNTy8IUgfwNoTlgnFIe-19" value="这里如果是用公众号发，组装的参数会有个别参数不一样" style="text;html=1;strokeColor=#d6b656;fillColor=#fff2cc;align=center;verticalAlign=middle;whiteSpace=wrap;rounded=0;" vertex="1" parent="1">
          <mxGeometry x="490" y="230" width="240" height="30" as="geometry" />
        </mxCell>
        <mxCell id="gyNTy8IUgfwNoTlgnFIe-21" value="一次新增消息要做的事：&lt;br&gt;1. 发什么消息，小程序服务通知还是公众号。&lt;br&gt;2. wx开放平台，找到对应消息模板。&lt;br&gt;3. 数据库配置模板 pro_notice_scene. &lt;br&gt;notice模块需通过sr找temp_id&lt;br&gt;4. 定义sr_code枚举，order_msg_notice。并告知前端&lt;br&gt;5.询问前端，跳转页面路径，所需参数。&lt;br&gt;6. 决定在哪个消费者组下（十几个），添加一个tag。&lt;br&gt;7. 让业务方投递mq和所需参数到这个tag。&lt;br&gt;8. 组装消息体（发给谁，内容是什么），spi发送消息到notice。" style="text;html=1;strokeColor=#d6b656;fillColor=#fff2cc;align=center;verticalAlign=middle;whiteSpace=wrap;rounded=0;" vertex="1" parent="1">
          <mxGeometry x="30" y="490" width="520" height="145" as="geometry" />
        </mxCell>
      </root>
    </mxGraphModel>
  </diagram>
</mxfile>
